<svg
  xmlns="http://www.w3.org/2000/svg"
  viewBox="0 0 726 128"
  width="726"
  height="128"
  role="img"
  aria-label="GitHub contribution graph with animated space rocket"
>
  <title>GitHub contribution space rocket animation</title>
  <desc>A futuristic space-shooter rocket flies through the GitHub contribution calendar for MATHANK-074.</desc>

  <style>
    .rocket-group {
      will-change: transform;
    }
  </style>

  <!-- Background -->
  <rect width="726" height="128" rx="6" fill="#0d1117" />

  <!-- Contribution grid -->
  <g id="grid">
    <rect x="20" y="20" width="10" height="10" rx="2" ry="2" fill="#161b22" />
    <rect x="20" y="33" width="10" height="10" rx="2" ry="2" fill="#161b22" />
    <rect x="20" y="46" width="10" height="10" rx="2" ry="2" fill="#161b22" />
    <rect x="20" y="59" width="10" height="10" rx="2" ry="2" fill="#161b22" />
    <rect x="20" y="72" width="10" height="10" rx="2" ry="2" fill="#161b22" />
    <rect x="20" y="85" width="10" height="10" rx="2" ry="2" fill="#161b22" />
    <rect x="20" y="98" width="10" height="10" rx="2" ry="2" fill="#161b22" />
    <rect x="33" y="20" width="10" height="10" rx="2" ry="2" fill="#161b22" />
    <rect x="33" y="33" width="10" height="10" rx="2" ry="2" fill="#161b22" />
    <rect x="33" y="46" width="10" height="10" rx="2" ry="2" fill="#161b22" />
    <rect x="33" y="59" width="10" height="10" rx="2" ry="2" fill="#161b22" />
    <rect x="33" y="72" width="10" height="10" rx="2" ry="2" fill="#161b22" />
    <rect x="33" y="85" width="10" height="10" rx="2" ry="2" fill="#161b22" />
    <rect x="33" y="98" width="10" height="10" rx="2" ry="2" fill="#161b22" />
    <rect x="46" y="20" width="10" height="10" rx="2" ry="2" fill="#161b22" />
    <rect x="46" y="33" width="10" height="10" rx="2" ry="2" fill="#161b22" />
    <rect x="46" y="46" width="10" height="10" rx="2" ry="2" fill="#161b22" />
    <rect x="46" y="59" width="10" height="10" rx="2" ry="2" fill="#161b22" />
    <rect x="46" y="72" width="10" height="10" rx="2" ry="2" fill="#161b22" />
    <rect x="46" y="85" width="10" height="10" rx="2" ry="2" fill="#161b22" />
    <rect x="46" y="98" width="10" height="10" rx="2" ry="2" fill="#161b22" />
    <rect x="59" y="20" width="10" height="10" rx="2" ry="2" fill="#161b22" />
    <rect x="59" y="33" width="10" height="10" rx="2" ry="2" fill="#161b22" />
    <rect x="59" y="46" width="10" height="10" rx="2" ry="2" fill="#161b22" />
    <rect x="59" y="59" width="10" height="10" rx="2" ry="2" fill="#161b22" />
    <rect x="59" y="72" width="10" height="10" rx="2" ry="2" fill="#161b22" />
    <rect x="59" y="85" width="10" height="10" rx="2" ry="2" fill="#161b22" />
    <rect x="59" y="98" width="10" height="10" rx="2" ry="2" fill="#0e4429" />
    <rect x="72" y="20" width="10" height="10" rx="2" ry="2" fill="#161b22" />
    <rect x="72" y="33" width="10" height="10" rx="2" ry="2" fill="#161b22" />
    <rect x="72" y="46" width="10" height="10" rx="2" ry="2" fill="#161b22" />
    <rect x="72" y="59" width="10" height="10" rx="2" ry="2" fill="#161b22" />
    <rect x="72" y="72" width="10" height="10" rx="2" ry="2" fill="#161b22" />
    <rect x="72" y="85" width="10" height="10" rx="2" ry="2" fill="#161b22" />
    <rect x="72" y="98" width="10" height="10" rx="2" ry="2" fill="#161b22" />
    <rect x="85" y="20" width="10" height="10" rx="2" ry="2" fill="#161b22" />
    <rect x="85" y="33" width="10" height="10" rx="2" ry="2" fill="#161b22" />
    <rect x="85" y="46" width="10" height="10" rx="2" ry="2" fill="#161b22" />
    <rect x="85" y="59" width="10" height="10" rx="2" ry="2" fill="#161b22" />
    <rect x="85" y="72" width="10" height="10" rx="2" ry="2" fill="#161b22" />
    <rect x="85" y="85" width="10" height="10" rx="2" ry="2" fill="#161b22" />
    <rect x="85" y="98" width="10" height="10" rx="2" ry="2" fill="#161b22" />
    <rect x="98" y="20" width="10" height="10" rx="2" ry="2" fill="#26a641" />
    <rect x="98" y="33" width="10" height="10" rx="2" ry="2" fill="#161b22" />
    <rect x="98" y="46" width="10" height="10" rx="2" ry="2" fill="#161b22" />
    <rect x="98" y="59" width="10" height="10" rx="2" ry="2" fill="#161b22" />
    <rect x="98" y="72" width="10" height="10" rx="2" ry="2" fill="#161b22" />
    <rect x="98" y="85" width="10" height="10" rx="2" ry="2" fill="#161b22" />
    <rect x="98" y="98" width="10" height="10" rx="2" ry="2" fill="#161b22" />
    <rect x="111" y="20" width="10" height="10" rx="2" ry="2" fill="#161b22" />
    <rect x="111" y="33" width="10" height="10" rx="2" ry="2" fill="#161b22" />
    <rect x="111" y="46" width="10" height="10" rx="2" ry="2" fill="#161b22" />
    <rect x="111" y="59" width="10" height="10" rx="2" ry="2" fill="#161b22" />
    <rect x="111" y="72" width="10" height="10" rx="2" ry="2" fill="#161b22" />
    <rect x="111" y="85" width="10" height="10" rx="2" ry="2" fill="#161b22" />
    <rect x="111" y="98" width="10" height="10" rx="2" ry="2" fill="#161b22" />
    <rect x="124" y="20" width="10" height="10" rx="2" ry="2" fill="#161b22" />
    <rect x="124" y="33" width="10" height="10" rx="2" ry="2" fill="#161b22" />
    <rect x="124" y="46" width="10" height="10" rx="2" ry="2" fill="#161b22" />
    <rect x="124" y="59" width="10" height="10" rx="2" ry="2" fill="#161b22" />
    <rect x="124" y="72" width="10" height="10" rx="2" ry="2" fill="#161b22" />
    <rect x="124" y="85" width="10" height="10" rx="2" ry="2" fill="#161b22" />
    <rect x="124" y="98" width="10" height="10" rx="2" ry="2" fill="#161b22" />
    <rect x="137" y="20" width="10" height="10" rx="2" ry="2" fill="#161b22" />
    <rect x="137" y="33" width="10" height="10" rx="2" ry="2" fill="#161b22" />
    <rect x="137" y="46" width="10" height="10" rx="2" ry="2" fill="#161b22" />
    <rect x="137" y="59" width="10" height="10" rx="2" ry="2" fill="#161b22" />
    <rect x="137" y="72" width="10" height="10" rx="2" ry="2" fill="#161b22" />
    <rect x="137" y="85" width="10" height="10" rx="2" ry="2" fill="#161b22" />
    <rect x="137" y="98" width="10" height="10" rx="2" ry="2" fill="#161b22" />
    <rect x="150" y="20" width="10" height="10" rx="2" ry="2" fill="#161b22" />
    <rect x="150" y="33" width="10" height="10" rx="2" ry="2" fill="#161b22" />
    <rect x="150" y="46" width="10" height="10" rx="2" ry="2" fill="#161b22" />
    <rect x="150" y="59" width="10" height="10" rx="2" ry="2" fill="#161b22" />
    <rect x="150" y="72" width="10" height="10" rx="2" ry="2" fill="#161b22" />
    <rect x="150" y="85" width="10" height="10" rx="2" ry="2" fill="#161b22" />
    <rect x="150" y="98" width="10" height="10" rx="2" ry="2" fill="#161b22" />
    <rect x="163" y="20" width="10" height="10" rx="2" ry="2" fill="#161b22" />
    <rect x="163" y="33" width="10" height="10" rx="2" ry="2" fill="#161b22" />
    <rect x="163" y="46" width="10" height="10" rx="2" ry="2" fill="#161b22" />
    <rect x="163" y="59" width="10" height="10" rx="2" ry="2" fill="#161b22" />
    <rect x="163" y="72" width="10" height="10" rx="2" ry="2" fill="#161b22" />
    <rect x="163" y="85" width="10" height="10" rx="2" ry="2" fill="#161b22" />
    <rect x="163" y="98" width="10" height="10" rx="2" ry="2" fill="#161b22" />
    <rect x="176" y="20" width="10" height="10" rx="2" ry="2" fill="#161b22" />
    <rect x="176" y="33" width="10" height="10" rx="2" ry="2" fill="#161b22" />
    <rect x="176" y="46" width="10" height="10" rx="2" ry="2" fill="#161b22" />
    <rect x="176" y="59" width="10" height="10" rx="2" ry="2" fill="#161b22" />
    <rect x="176" y="72" width="10" height="10" rx="2" ry="2" fill="#161b22" />
    <rect x="176" y="85" width="10" height="10" rx="2" ry="2" fill="#161b22" />
    <rect x="176" y="98" width="10" height="10" rx="2" ry="2" fill="#161b22" />
    <rect x="189" y="20" width="10" height="10" rx="2" ry="2" fill="#161b22" />
    <rect x="189" y="33" width="10" height="10" rx="2" ry="2" fill="#161b22" />
    <rect x="189" y="46" width="10" height="10" rx="2" ry="2" fill="#161b22" />
    <rect x="189" y="59" width="10" height="10" rx="2" ry="2" fill="#161b22" />
    <rect x="189" y="72" width="10" height="10" rx="2" ry="2" fill="#0e4429" />
    <rect x="189" y="85" width="10" height="10" rx="2" ry="2" fill="#006d32" />
    <rect x="189" y="98" width="10" height="10" rx="2" ry="2" fill="#161b22" />
    <rect x="202" y="20" width="10" height="10" rx="2" ry="2" fill="#161b22" />
    <rect x="202" y="33" width="10" height="10" rx="2" ry="2" fill="#161b22" />
    <rect x="202" y="46" width="10" height="10" rx="2" ry="2" fill="#161b22" />
    <rect x="202" y="59" width="10" height="10" rx="2" ry="2" fill="#161b22" />
    <rect x="202" y="72" width="10" height="10" rx="2" ry="2" fill="#161b22" />
    <rect x="202" y="85" width="10" height="10" rx="2" ry="2" fill="#161b22" />
    <rect x="202" y="98" width="10" height="10" rx="2" ry="2" fill="#161b22" />
    <rect x="215" y="20" width="10" height="10" rx="2" ry="2" fill="#161b22" />
    <rect x="215" y="33" width="10" height="10" rx="2" ry="2" fill="#161b22" />
    <rect x="215" y="46" width="10" height="10" rx="2" ry="2" fill="#161b22" />
    <rect x="215" y="59" width="10" height="10" rx="2" ry="2" fill="#161b22" />
    <rect x="215" y="72" width="10" height="10" rx="2" ry="2" fill="#161b22" />
    <rect x="215" y="85" width="10" height="10" rx="2" ry="2" fill="#161b22" />
    <rect x="215" y="98" width="10" height="10" rx="2" ry="2" fill="#161b22" />
    <rect x="228" y="20" width="10" height="10" rx="2" ry="2" fill="#161b22" />
    <rect x="228" y="33" width="10" height="10" rx="2" ry="2" fill="#161b22" />
    <rect x="228" y="46" width="10" height="10" rx="2" ry="2" fill="#161b22" />
    <rect x="228" y="59" width="10" height="10" rx="2" ry="2" fill="#161b22" />
    <rect x="228" y="72" width="10" height="10" rx="2" ry="2" fill="#161b22" />
    <rect x="228" y="85" width="10" height="10" rx="2" ry="2" fill="#161b22" />
    <rect x="228" y="98" width="10" height="10" rx="2" ry="2" fill="#161b22" />
    <rect x="241" y="20" width="10" height="10" rx="2" ry="2" fill="#161b22" />
    <rect x="241" y="33" width="10" height="10" rx="2" ry="2" fill="#161b22" />
    <rect x="241" y="46" width="10" height="10" rx="2" ry="2" fill="#161b22" />
    <rect x="241" y="59" width="10" height="10" rx="2" ry="2" fill="#161b22" />
    <rect x="241" y="72" width="10" height="10" rx="2" ry="2" fill="#161b22" />
    <rect x="241" y="85" width="10" height="10" rx="2" ry="2" fill="#161b22" />
    <rect x="241" y="98" width="10" height="10" rx="2" ry="2" fill="#006d32" />
    <rect x="254" y="20" width="10" height="10" rx="2" ry="2" fill="#161b22" />
    <rect x="254" y="33" width="10" height="10" rx="2" ry="2" fill="#161b22" />
    <rect x="254" y="46" width="10" height="10" rx="2" ry="2" fill="#161b22" />
    <rect x="254" y="59" width="10" height="10" rx="2" ry="2" fill="#161b22" />
    <rect x="254" y="72" width="10" height="10" rx="2" ry="2" fill="#161b22" />
    <rect x="254" y="85" width="10" height="10" rx="2" ry="2" fill="#006d32" />
    <rect x="254" y="98" width="10" height="10" rx="2" ry="2" fill="#161b22" />
    <rect x="267" y="20" width="10" height="10" rx="2" ry="2" fill="#161b22" />
    <rect x="267" y="33" width="10" height="10" rx="2" ry="2" fill="#161b22" />
    <rect x="267" y="46" width="10" height="10" rx="2" ry="2" fill="#161b22" />
    <rect x="267" y="59" width="10" height="10" rx="2" ry="2" fill="#161b22" />
    <rect x="267" y="72" width="10" height="10" rx="2" ry="2" fill="#161b22" />
    <rect x="267" y="85" width="10" height="10" rx="2" ry="2" fill="#161b22" />
    <rect x="267" y="98" width="10" height="10" rx="2" ry="2" fill="#161b22" />
    <rect x="280" y="20" width="10" height="10" rx="2" ry="2" fill="#161b22" />
    <rect x="280" y="33" width="10" height="10" rx="2" ry="2" fill="#161b22" />
    <rect x="280" y="46" width="10" height="10" rx="2" ry="2" fill="#161b22" />
    <rect x="280" y="59" width="10" height="10" rx="2" ry="2" fill="#161b22" />
    <rect x="280" y="72" width="10" height="10" rx="2" ry="2" fill="#161b22" />
    <rect x="280" y="85" width="10" height="10" rx="2" ry="2" fill="#161b22" />
    <rect x="280" y="98" width="10" height="10" rx="2" ry="2" fill="#161b22" />
    <rect x="293" y="20" width="10" height="10" rx="2" ry="2" fill="#161b22" />
    <rect x="293" y="33" width="10" height="10" rx="2" ry="2" fill="#161b22" />
    <rect x="293" y="46" width="10" height="10" rx="2" ry="2" fill="#161b22" />
    <rect x="293" y="59" width="10" height="10" rx="2" ry="2" fill="#161b22" />
    <rect x="293" y="72" width="10" height="10" rx="2" ry="2" fill="#161b22" />
    <rect x="293" y="85" width="10" height="10" rx="2" ry="2" fill="#161b22" />
    <rect x="293" y="98" width="10" height="10" rx="2" ry="2" fill="#161b22" />
    <rect x="306" y="20" width="10" height="10" rx="2" ry="2" fill="#161b22" />
    <rect x="306" y="33" width="10" height="10" rx="2" ry="2" fill="#161b22" />
    <rect x="306" y="46" width="10" height="10" rx="2" ry="2" fill="#161b22" />
    <rect x="306" y="59" width="10" height="10" rx="2" ry="2" fill="#0e4429" />
    <rect x="306" y="72" width="10" height="10" rx="2" ry="2" fill="#0e4429" />
    <rect x="306" y="85" width="10" height="10" rx="2" ry="2" fill="#161b22" />
    <rect x="306" y="98" width="10" height="10" rx="2" ry="2" fill="#161b22" />
    <rect x="319" y="20" width="10" height="10" rx="2" ry="2" fill="#161b22" />
    <rect x="319" y="33" width="10" height="10" rx="2" ry="2" fill="#161b22" />
    <rect x="319" y="46" width="10" height="10" rx="2" ry="2" fill="#161b22" />
    <rect x="319" y="59" width="10" height="10" rx="2" ry="2" fill="#0e4429" />
    <rect x="319" y="72" width="10" height="10" rx="2" ry="2" fill="#161b22" />
    <rect x="319" y="85" width="10" height="10" rx="2" ry="2" fill="#161b22" />
    <rect x="319" y="98" width="10" height="10" rx="2" ry="2" fill="#0e4429" />
    <rect x="332" y="20" width="10" height="10" rx="2" ry="2" fill="#161b22" />
    <rect x="332" y="33" width="10" height="10" rx="2" ry="2" fill="#161b22" />
    <rect x="332" y="46" width="10" height="10" rx="2" ry="2" fill="#161b22" />
    <rect x="332" y="59" width="10" height="10" rx="2" ry="2" fill="#161b22" />
    <rect x="332" y="72" width="10" height="10" rx="2" ry="2" fill="#0e4429" />
    <rect x="332" y="85" width="10" height="10" rx="2" ry="2" fill="#161b22" />
    <rect x="332" y="98" width="10" height="10" rx="2" ry="2" fill="#161b22" />
    <rect x="345" y="20" width="10" height="10" rx="2" ry="2" fill="#0e4429" />
    <rect x="345" y="33" width="10" height="10" rx="2" ry="2" fill="#161b22" />
    <rect x="345" y="46" width="10" height="10" rx="2" ry="2" fill="#161b22" />
    <rect x="345" y="59" width="10" height="10" rx="2" ry="2" fill="#161b22" />
    <rect x="345" y="72" width="10" height="10" rx="2" ry="2" fill="#161b22" />
    <rect x="345" y="85" width="10" height="10" rx="2" ry="2" fill="#161b22" />
    <rect x="345" y="98" width="10" height="10" rx="2" ry="2" fill="#161b22" />
    <rect x="358" y="20" width="10" height="10" rx="2" ry="2" fill="#161b22" />
    <rect x="358" y="33" width="10" height="10" rx="2" ry="2" fill="#161b22" />
    <rect x="358" y="46" width="10" height="10" rx="2" ry="2" fill="#161b22" />
    <rect x="358" y="59" width="10" height="10" rx="2" ry="2" fill="#0e4429" />
    <rect x="358" y="72" width="10" height="10" rx="2" ry="2" fill="#161b22" />
    <rect x="358" y="85" width="10" height="10" rx="2" ry="2" fill="#161b22" />
    <rect x="358" y="98" width="10" height="10" rx="2" ry="2" fill="#161b22" />
    <rect x="371" y="20" width="10" height="10" rx="2" ry="2" fill="#161b22" />
    <rect x="371" y="33" width="10" height="10" rx="2" ry="2" fill="#161b22" />
    <rect x="371" y="46" width="10" height="10" rx="2" ry="2" fill="#161b22" />
    <rect x="371" y="59" width="10" height="10" rx="2" ry="2" fill="#0e4429" />
    <rect x="371" y="72" width="10" height="10" rx="2" ry="2" fill="#161b22" />
    <rect x="371" y="85" width="10" height="10" rx="2" ry="2" fill="#161b22" />
    <rect x="371" y="98" width="10" height="10" rx="2" ry="2" fill="#161b22" />
    <rect x="384" y="20" width="10" height="10" rx="2" ry="2" fill="#161b22" />
    <rect x="384" y="33" width="10" height="10" rx="2" ry="2" fill="#161b22" />
    <rect x="384" y="46" width="10" height="10" rx="2" ry="2" fill="#161b22" />
    <rect x="384" y="59" width="10" height="10" rx="2" ry="2" fill="#161b22" />
    <rect x="384" y="72" width="10" height="10" rx="2" ry="2" fill="#161b22" />
    <rect x="384" y="85" width="10" height="10" rx="2" ry="2" fill="#161b22" />
    <rect x="384" y="98" width="10" height="10" rx="2" ry="2" fill="#161b22" />
    <rect x="397" y="20" width="10" height="10" rx="2" ry="2" fill="#161b22" />
    <rect x="397" y="33" width="10" height="10" rx="2" ry="2" fill="#161b22" />
    <rect x="397" y="46" width="10" height="10" rx="2" ry="2" fill="#161b22" />
    <rect x="397" y="59" width="10" height="10" rx="2" ry="2" fill="#161b22" />
    <rect x="397" y="72" width="10" height="10" rx="2" ry="2" fill="#161b22" />
    <rect x="397" y="85" width="10" height="10" rx="2" ry="2" fill="#0e4429" />
    <rect x="397" y="98" width="10" height="10" rx="2" ry="2" fill="#161b22" />
    <rect x="410" y="20" width="10" height="10" rx="2" ry="2" fill="#161b22" />
    <rect x="410" y="33" width="10" height="10" rx="2" ry="2" fill="#161b22" />
    <rect x="410" y="46" width="10" height="10" rx="2" ry="2" fill="#161b22" />
    <rect x="410" y="59" width="10" height="10" rx="2" ry="2" fill="#161b22" />
    <rect x="410" y="72" width="10" height="10" rx="2" ry="2" fill="#161b22" />
    <rect x="410" y="85" width="10" height="10" rx="2" ry="2" fill="#161b22" />
    <rect x="410" y="98" width="10" height="10" rx="2" ry="2" fill="#161b22" />
    <rect x="423" y="20" width="10" height="10" rx="2" ry="2" fill="#161b22" />
    <rect x="423" y="33" width="10" height="10" rx="2" ry="2" fill="#161b22" />
    <rect x="423" y="46" width="10" height="10" rx="2" ry="2" fill="#161b22" />
    <rect x="423" y="59" width="10" height="10" rx="2" ry="2" fill="#161b22" />
    <rect x="423" y="72" width="10" height="10" rx="2" ry="2" fill="#161b22" />
    <rect x="423" y="85" width="10" height="10" rx="2" ry="2" fill="#161b22" />
    <rect x="423" y="98" width="10" height="10" rx="2" ry="2" fill="#161b22" />
    <rect x="436" y="20" width="10" height="10" rx="2" ry="2" fill="#161b22" />
    <rect x="436" y="33" width="10" height="10" rx="2" ry="2" fill="#161b22" />
    <rect x="436" y="46" width="10" height="10" rx="2" ry="2" fill="#161b22" />
    <rect x="436" y="59" width="10" height="10" rx="2" ry="2" fill="#161b22" />
    <rect x="436" y="72" width="10" height="10" rx="2" ry="2" fill="#161b22" />
    <rect x="436" y="85" width="10" height="10" rx="2" ry="2" fill="#161b22" />
    <rect x="436" y="98" width="10" height="10" rx="2" ry="2" fill="#161b22" />
    <rect x="449" y="20" width="10" height="10" rx="2" ry="2" fill="#161b22" />
    <rect x="449" y="33" width="10" height="10" rx="2" ry="2" fill="#161b22" />
    <rect x="449" y="46" width="10" height="10" rx="2" ry="2" fill="#161b22" />
    <rect x="449" y="59" width="10" height="10" rx="2" ry="2" fill="#161b22" />
    <rect x="449" y="72" width="10" height="10" rx="2" ry="2" fill="#161b22" />
    <rect x="449" y="85" width="10" height="10" rx="2" ry="2" fill="#161b22" />
    <rect x="449" y="98" width="10" height="10" rx="2" ry="2" fill="#161b22" />
    <rect x="462" y="20" width="10" height="10" rx="2" ry="2" fill="#161b22" />
    <rect x="462" y="33" width="10" height="10" rx="2" ry="2" fill="#161b22" />
    <rect x="462" y="46" width="10" height="10" rx="2" ry="2" fill="#161b22" />
    <rect x="462" y="59" width="10" height="10" rx="2" ry="2" fill="#161b22" />
    <rect x="462" y="72" width="10" height="10" rx="2" ry="2" fill="#161b22" />
    <rect x="462" y="85" width="10" height="10" rx="2" ry="2" fill="#161b22" />
    <rect x="462" y="98" width="10" height="10" rx="2" ry="2" fill="#161b22" />
    <rect x="475" y="20" width="10" height="10" rx="2" ry="2" fill="#161b22" />
    <rect x="475" y="33" width="10" height="10" rx="2" ry="2" fill="#161b22" />
    <rect x="475" y="46" width="10" height="10" rx="2" ry="2" fill="#161b22" />
    <rect x="475" y="59" width="10" height="10" rx="2" ry="2" fill="#161b22" />
    <rect x="475" y="72" width="10" height="10" rx="2" ry="2" fill="#161b22" />
    <rect x="475" y="85" width="10" height="10" rx="2" ry="2" fill="#161b22" />
    <rect x="475" y="98" width="10" height="10" rx="2" ry="2" fill="#161b22" />
    <rect x="488" y="20" width="10" height="10" rx="2" ry="2" fill="#161b22" />
    <rect x="488" y="33" width="10" height="10" rx="2" ry="2" fill="#161b22" />
    <rect x="488" y="46" width="10" height="10" rx="2" ry="2" fill="#161b22" />
    <rect x="488" y="59" width="10" height="10" rx="2" ry="2" fill="#161b22" />
    <rect x="488" y="72" width="10" height="10" rx="2" ry="2" fill="#161b22" />
    <rect x="488" y="85" width="10" height="10" rx="2" ry="2" fill="#161b22" />
    <rect x="488" y="98" width="10" height="10" rx="2" ry="2" fill="#161b22" />
    <rect x="501" y="20" width="10" height="10" rx="2" ry="2" fill="#161b22" />
    <rect x="501" y="33" width="10" height="10" rx="2" ry="2" fill="#161b22" />
    <rect x="501" y="46" width="10" height="10" rx="2" ry="2" fill="#161b22" />
    <rect x="501" y="59" width="10" height="10" rx="2" ry="2" fill="#161b22" />
    <rect x="501" y="72" width="10" height="10" rx="2" ry="2" fill="#161b22" />
    <rect x="501" y="85" width="10" height="10" rx="2" ry="2" fill="#161b22" />
    <rect x="501" y="98" width="10" height="10" rx="2" ry="2" fill="#161b22" />
    <rect x="514" y="20" width="10" height="10" rx="2" ry="2" fill="#161b22" />
    <rect x="514" y="33" width="10" height="10" rx="2" ry="2" fill="#161b22" />
    <rect x="514" y="46" width="10" height="10" rx="2" ry="2" fill="#161b22" />
    <rect x="514" y="59" width="10" height="10" rx="2" ry="2" fill="#161b22" />
    <rect x="514" y="72" width="10" height="10" rx="2" ry="2" fill="#0e4429" />
    <rect x="514" y="85" width="10" height="10" rx="2" ry="2" fill="#161b22" />
    <rect x="514" y="98" width="10" height="10" rx="2" ry="2" fill="#0e4429" />
    <rect x="527" y="20" width="10" height="10" rx="2" ry="2" fill="#161b22" />
    <rect x="527" y="33" width="10" height="10" rx="2" ry="2" fill="#161b22" />
    <rect x="527" y="46" width="10" height="10" rx="2" ry="2" fill="#161b22" />
    <rect x="527" y="59" width="10" height="10" rx="2" ry="2" fill="#161b22" />
    <rect x="527" y="72" width="10" height="10" rx="2" ry="2" fill="#161b22" />
    <rect x="527" y="85" width="10" height="10" rx="2" ry="2" fill="#161b22" />
    <rect x="527" y="98" width="10" height="10" rx="2" ry="2" fill="#161b22" />
    <rect x="540" y="20" width="10" height="10" rx="2" ry="2" fill="#161b22" />
    <rect x="540" y="33" width="10" height="10" rx="2" ry="2" fill="#161b22" />
    <rect x="540" y="46" width="10" height="10" rx="2" ry="2" fill="#161b22" />
    <rect x="540" y="59" width="10" height="10" rx="2" ry="2" fill="#161b22" />
    <rect x="540" y="72" width="10" height="10" rx="2" ry="2" fill="#161b22" />
    <rect x="540" y="85" width="10" height="10" rx="2" ry="2" fill="#161b22" />
    <rect x="540" y="98" width="10" height="10" rx="2" ry="2" fill="#161b22" />
    <rect x="553" y="20" width="10" height="10" rx="2" ry="2" fill="#161b22" />
    <rect x="553" y="33" width="10" height="10" rx="2" ry="2" fill="#0e4429" />
    <rect x="553" y="46" width="10" height="10" rx="2" ry="2" fill="#161b22" />
    <rect x="553" y="59" width="10" height="10" rx="2" ry="2" fill="#161b22" />
    <rect x="553" y="72" width="10" height="10" rx="2" ry="2" fill="#161b22" />
    <rect x="553" y="85" width="10" height="10" rx="2" ry="2" fill="#161b22" />
    <rect x="553" y="98" width="10" height="10" rx="2" ry="2" fill="#0e4429" />
    <rect x="566" y="20" width="10" height="10" rx="2" ry="2" fill="#161b22" />
    <rect x="566" y="33" width="10" height="10" rx="2" ry="2" fill="#161b22" />
    <rect x="566" y="46" width="10" height="10" rx="2" ry="2" fill="#161b22" />
    <rect x="566" y="59" width="10" height="10" rx="2" ry="2" fill="#161b22" />
    <rect x="566" y="72" width="10" height="10" rx="2" ry="2" fill="#0e4429" />
    <rect x="566" y="85" width="10" height="10" rx="2" ry="2" fill="#0e4429" />
    <rect x="566" y="98" width="10" height="10" rx="2" ry="2" fill="#0e4429" />
    <rect x="579" y="20" width="10" height="10" rx="2" ry="2" fill="#161b22" />
    <rect x="579" y="33" width="10" height="10" rx="2" ry="2" fill="#161b22" />
    <rect x="579" y="46" width="10" height="10" rx="2" ry="2" fill="#161b22" />
    <rect x="579" y="59" width="10" height="10" rx="2" ry="2" fill="#161b22" />
    <rect x="579" y="72" width="10" height="10" rx="2" ry="2" fill="#006d32" />
    <rect x="579" y="85" width="10" height="10" rx="2" ry="2" fill="#006d32" />
    <rect x="579" y="98" width="10" height="10" rx="2" ry="2" fill="#161b22" />
    <rect x="592" y="20" width="10" height="10" rx="2" ry="2" fill="#161b22" />
    <rect x="592" y="33" width="10" height="10" rx="2" ry="2" fill="#161b22" />
    <rect x="592" y="46" width="10" height="10" rx="2" ry="2" fill="#161b22" />
    <rect x="592" y="59" width="10" height="10" rx="2" ry="2" fill="#161b22" />
    <rect x="592" y="72" width="10" height="10" rx="2" ry="2" fill="#161b22" />
    <rect x="592" y="85" width="10" height="10" rx="2" ry="2" fill="#161b22" />
    <rect x="592" y="98" width="10" height="10" rx="2" ry="2" fill="#161b22" />
    <rect x="605" y="20" width="10" height="10" rx="2" ry="2" fill="#161b22" />
    <rect x="605" y="33" width="10" height="10" rx="2" ry="2" fill="#161b22" />
    <rect x="605" y="46" width="10" height="10" rx="2" ry="2" fill="#161b22" />
    <rect x="605" y="59" width="10" height="10" rx="2" ry="2" fill="#161b22" />
    <rect x="605" y="72" width="10" height="10" rx="2" ry="2" fill="#0e4429" />
    <rect x="605" y="85" width="10" height="10" rx="2" ry="2" fill="#161b22" />
    <rect x="605" y="98" width="10" height="10" rx="2" ry="2" fill="#161b22" />
    <rect x="618" y="20" width="10" height="10" rx="2" ry="2" fill="#161b22" />
    <rect x="618" y="33" width="10" height="10" rx="2" ry="2" fill="#161b22" />
    <rect x="618" y="46" width="10" height="10" rx="2" ry="2" fill="#161b22" />
    <rect x="618" y="59" width="10" height="10" rx="2" ry="2" fill="#161b22" />
    <rect x="618" y="72" width="10" height="10" rx="2" ry="2" fill="#161b22" />
    <rect x="618" y="85" width="10" height="10" rx="2" ry="2" fill="#0e4429" />
    <rect x="618" y="98" width="10" height="10" rx="2" ry="2" fill="#0e4429" />
    <rect x="631" y="20" width="10" height="10" rx="2" ry="2" fill="#161b22" />
    <rect x="631" y="33" width="10" height="10" rx="2" ry="2" fill="#0e4429" />
    <rect x="631" y="46" width="10" height="10" rx="2" ry="2" fill="#161b22" />
    <rect x="631" y="59" width="10" height="10" rx="2" ry="2" fill="#161b22" />
    <rect x="631" y="72" width="10" height="10" rx="2" ry="2" fill="#161b22" />
    <rect x="631" y="85" width="10" height="10" rx="2" ry="2" fill="#161b22" />
    <rect x="631" y="98" width="10" height="10" rx="2" ry="2" fill="#161b22" />
    <rect x="644" y="20" width="10" height="10" rx="2" ry="2" fill="#161b22" />
    <rect x="644" y="33" width="10" height="10" rx="2" ry="2" fill="#161b22" />
    <rect x="644" y="46" width="10" height="10" rx="2" ry="2" fill="#161b22" />
    <rect x="644" y="59" width="10" height="10" rx="2" ry="2" fill="#161b22" />
    <rect x="644" y="72" width="10" height="10" rx="2" ry="2" fill="#161b22" />
    <rect x="644" y="85" width="10" height="10" rx="2" ry="2" fill="#161b22" />
    <rect x="644" y="98" width="10" height="10" rx="2" ry="2" fill="#161b22" />
    <rect x="657" y="20" width="10" height="10" rx="2" ry="2" fill="#161b22" />
    <rect x="657" y="33" width="10" height="10" rx="2" ry="2" fill="#161b22" />
    <rect x="657" y="46" width="10" height="10" rx="2" ry="2" fill="#161b22" />
    <rect x="657" y="59" width="10" height="10" rx="2" ry="2" fill="#161b22" />
    <rect x="657" y="72" width="10" height="10" rx="2" ry="2" fill="#161b22" />
    <rect x="657" y="85" width="10" height="10" rx="2" ry="2" fill="#161b22" />
    <rect x="657" y="98" width="10" height="10" rx="2" ry="2" fill="#161b22" />
    <rect x="670" y="20" width="10" height="10" rx="2" ry="2" fill="#0e4429" />
    <rect x="670" y="33" width="10" height="10" rx="2" ry="2" fill="#161b22" />
    <rect x="670" y="46" width="10" height="10" rx="2" ry="2" fill="#161b22" />
    <rect x="670" y="59" width="10" height="10" rx="2" ry="2" fill="#161b22" />
    <rect x="670" y="72" width="10" height="10" rx="2" ry="2" fill="#161b22" />
    <rect x="670" y="85" width="10" height="10" rx="2" ry="2" fill="#161b22" />
    <rect x="670" y="98" width="10" height="10" rx="2" ry="2" fill="#161b22" />
    <rect x="683" y="20" width="10" height="10" rx="2" ry="2" fill="#161b22" />
    <rect x="683" y="33" width="10" height="10" rx="2" ry="2" fill="#161b22" />
    <rect x="683" y="46" width="10" height="10" rx="2" ry="2" fill="#161b22" />
    <rect x="683" y="59" width="10" height="10" rx="2" ry="2" fill="#161b22" />
    <rect x="683" y="72" width="10" height="10" rx="2" ry="2" fill="#161b22" />
    <rect x="683" y="85" width="10" height="10" rx="2" ry="2" fill="#161b22" />
    <rect x="683" y="98" width="10" height="10" rx="2" ry="2" fill="#0e4429" />
    <rect x="696" y="20" width="10" height="10" rx="2" ry="2" fill="#39d353" />
    <rect x="696" y="33" width="10" height="10" rx="2" ry="2" fill="#0e4429" />
    <rect x="696" y="46" width="10" height="10" rx="2" ry="2" fill="#0e4429" />
    <rect x="696" y="59" width="10" height="10" rx="2" ry="2" fill="#0e4429" />
    <rect x="696" y="72" width="10" height="10" rx="2" ry="2" fill="#161b22" />
    <rect x="696" y="85" width="10" height="10" rx="2" ry="2" fill="#161b22" />
    <rect x="696" y="98" width="10" height="10" rx="2" ry="2" fill="#161b22" />
  </g>

  <!-- Rocket + flight animation -->
  <g class="rocket-group">
    <!-- exhaust (subtle) -->
    <ellipse cx="-9" cy="0" rx="5" ry="2.2" fill="#f97316" opacity="0.35">
      <animate attributeName="rx" values="5;6.5;5" dur="0.4s" repeatCount="indefinite" />
      <animate attributeName="opacity" values="0.35;0.55;0.35" dur="0.4s" repeatCount="indefinite" />
    </ellipse>
    <ellipse cx="-7.5" cy="0" rx="2.5" ry="1.2" fill="#fbbf24" opacity="0.55">
      <animate attributeName="rx" values="2.5;3.5;2.5" dur="0.3s" repeatCount="indefinite" />
    </ellipse>

    <!-- body -->
    <path d="M 7 0 L 3.5 -3.2 L -4 -3.2 L -4 3.2 L 3.5 3.2 Z" fill="#c8d0dc" />

    <!-- nose cone -->
    <path d="M 7 0 L 4.5 -2 L 4.5 2 Z" fill="#ef4444" />

    <!-- cockpit window -->
    <circle cx="1.5" cy="0" r="1.4" fill="#60a5fa" />
    <circle cx="1" cy="-0.5" r="0.5" fill="#ffffff" opacity="0.5" />

    <!-- top fin -->
    <path d="M -3.5 -3.2 L -5.5 -6 L -5 -3.2 Z" fill="#64748b" />
    <!-- bottom fin -->
    <path d="M -3.5 3.2 L -5.5 6 L -5 3.2 Z" fill="#64748b" />

    <!-- engine nozzle -->
    <rect x="-5.5" y="-2" width="1.8" height="4" rx="0.4" fill="#374151" />
    <animateMotion
      dur="12s"
      repeatCount="indefinite"
      rotate="auto"
      calcMode="spline"
      keySplines="0.4 0 0.6 1; 0.4 0 0.6 1; 0.4 0 0.6 1; 0.4 0 0.6 1; 0.4 0 0.6 1; 0.4 0 0.6 1; 0.4 0 0.6 1; 0.4 0 0.6 1; 0.4 0 0.6 1; 0.4 0 0.6 1; 0.4 0 0.6 1; 0.4 0 0.6 1; 0.4 0 0.6 1; 0.4 0 0.6 1; 0.4 0 0.6 1; 0.4 0 0.6 1; 0.4 0 0.6 1; 0.4 0 0.6 1; 0.4 0 0.6 1; 0.4 0 0.6 1; 0.4 0 0.6 1; 0.4 0 0.6 1; 0.4 0 0.6 1; 0.4 0 0.6 1; 0.4 0 0.6 1; 0.4 0 0.6 1; 0.4 0 0.6 1; 0.4 0 0.6 1; 0.4 0 0.6 1; 0.4 0 0.6 1; 0.4 0 0.6 1; 0.4 0 0.6 1; 0.4 0 0.6 1; 0.4 0 0.6 1; 0.4 0 0.6 1; 0.4 0 0.6 1; 0.4 0 0.6 1; 0.4 0 0.6 1; 0.4 0 0.6 1; 0.4 0 0.6 1; 0.4 0 0.6 1; 0.4 0 0.6 1; 0.4 0 0.6 1; 0.4 0 0.6 1; 0.4 0 0.6 1; 0.4 0 0.6 1; 0.4 0 0.6 1; 0.4 0 0.6 1; 0.4 0 0.6 1; 0.4 0 0.6 1; 0.4 0 0.6 1; 0.4 0 0.6 1; 0.4 0 0.6 1; 0.4 0 0.6 1; 0.4 0 0.6 1; 0.4 0 0.6 1; 0.4 0 0.6 1; 0.4 0 0.6 1; 0.4 0 0.6 1; 0.4 0 0.6 1"
      keyTimes="0.0000;0.0167;0.0333;0.0500;0.0667;0.0833;0.1000;0.1167;0.1333;0.1500;0.1667;0.1833;0.2000;0.2167;0.2333;0.2500;0.2667;0.2833;0.3000;0.3167;0.3333;0.3500;0.3667;0.3833;0.4000;0.4167;0.4333;0.4500;0.4667;0.4833;0.5000;0.5167;0.5333;0.5500;0.5667;0.5833;0.6000;0.6167;0.6333;0.6500;0.6667;0.6833;0.7000;0.7167;0.7333;0.7500;0.7667;0.7833;0.8000;0.8167;0.8333;0.8500;0.8667;0.8833;0.9000;0.9167;0.9333;0.9500;0.9667;0.9833;1.0000"
      path="M -5 64 C -1.3 69, -0.1 72, 7.3 80.7 C 14.6 89.4, 12.2 87.9, 19.5 93 C 26.9 98, 24.4 97.4, 31.8 97.4 C 39.2 97.4, 36.7 98, 44.1 93 C 51.4 87.9, 49 89.4, 56.3 80.7 C 63.7 72, 61.2 74, 68.6 64 C 76 54, 73.5 56, 80.9 47.3 C 88.2 38.6, 85.8 40.6, 93.1 35 C 100.5 29.5, 98 28.9, 105.4 28.9 C 112.8 28.9, 110.3 29.5, 117.7 35 C 125 40.6, 122.6 38.6, 129.9 47.3 C 137.3 56, 134.8 54, 142.2 64 C 149.6 74, 147.1 72, 154.5 80.7 C 161.8 89.4, 159.4 87.9, 166.7 93 C 174.1 98, 171.6 97.7, 179 97.4 C 186.4 97.2, 183.9 97.1, 191.3 92.1 C 198.6 87.1, 196.2 89.1, 203.5 80.7 C 210.9 72.3, 208.4 74, 215.8 64 C 223.2 54, 220.7 56, 228.1 47.3 C 235.4 38.6, 233 33.5, 240.3 35 C 247.7 36.5, 245.2 47.3, 252.6 52.3 C 260 57.2, 257.5 53, 264.9 51.5 C 272.2 50, 269.8 43.5, 277.1 47.3 C 284.5 51, 282 54, 289.4 64 C 296.8 74, 294.3 72, 301.7 80.7 C 309 89.4, 306.6 87.9, 313.9 93 C 321.3 98, 318.8 97.4, 326.2 97.4 C 333.6 97.4, 331.1 98, 338.5 93 C 345.8 87.9, 343.4 89.4, 350.7 80.7 C 358.1 72, 355.6 74, 363 64 C 370.4 54, 367.9 56, 375.3 47.3 C 382.6 38.6, 380.2 40.1, 387.5 35 C 394.9 30, 392.4 30.6, 399.8 30.6 C 407.2 30.6, 404.7 30, 412.1 35 C 419.4 40.1, 417 38.6, 424.3 47.3 C 431.7 56, 429.2 54, 436.6 64 C 444 74, 441.5 72, 448.9 80.7 C 456.2 89.4, 453.8 87.9, 461.1 93 C 468.5 98, 466 97.4, 473.4 97.4 C 480.8 97.4, 478.3 98, 485.7 93 C 493 87.9, 490.6 89.4, 497.9 80.7 C 505.3 72, 502.8 74, 510.2 64 C 517.6 54, 515.1 56, 522.5 47.3 C 529.8 38.6, 527.4 40.1, 534.7 35 C 542.1 30, 539.6 30.6, 547 30.6 C 554.4 30.6, 551.9 30, 559.3 35 C 566.6 40.1, 564.2 37.4, 571.5 47.3 C 578.9 57.1, 576.4 57.9, 583.8 67.9 C 591.2 77.9, 588.7 73.2, 596.1 80.7 C 603.4 88.2, 601 87.9, 608.3 93 C 615.7 98, 613.2 97.4, 620.6 97.4 C 628 97.4, 625.5 98, 632.9 93 C 640.2 87.9, 637.8 89.4, 645.1 80.7 C 652.5 72, 650 74, 657.4 64 C 664.8 54, 662.3 56, 669.7 47.3 C 677 38.6, 674.6 40.1, 681.9 35 C 689.3 30, 686.8 31.5, 694.2 30.6 C 701.6 29.7, 699.1 27, 706.5 32 C 713.8 37, 711.4 37.7, 718.7 47.3 C 726.1 56.9, 727.3 59, 731 64"
    />
  </g>

</svg>